<svg width="161" height="40" viewBox="0 0 161 40" fill="none" xmlns="http://www.w3.org/2000/svg">
<path d="M13.2842 21.1273C12.6367 21.3787 11.9055 21.1045 11.5856 20.4875L5.64415 9.04647C4.95098 7.69061 5.47657 6.03768 6.83243 5.34452C6.91622 5.30643 6.99239 5.26834 7.07618 5.23026C8.60723 4.61327 10.2906 5.51209 10.7172 7.066L10.7248 7.08885L14.0992 19.5125C14.2744 20.1752 13.924 20.876 13.2842 21.1273Z" fill="#F98500"/>
<path d="M12.9643 15.3611L11.2809 16.0238C10.9686 16.1381 10.6182 15.9857 10.4888 15.6734C10.3669 15.3611 10.5192 15.0031 10.8315 14.8813L12.6368 14.1729L12.9643 15.3611Z" fill="#FA6D00"/>
<path d="M13.6192 17.7452L12.172 18.286C11.8597 18.3926 11.5169 18.2479 11.3798 17.9356C11.2579 17.6233 11.4102 17.2653 11.7302 17.1434L13.2993 16.5569L13.6192 17.7452Z" fill="#FA6D00"/>
<path d="M20.4518 9.93753C19.9415 9.58714 19.6825 8.97015 19.7968 8.35315C20.0786 6.93636 19.1645 5.55765 17.7401 5.26819C17.7249 5.26819 17.702 5.26058 17.6868 5.26058C17.1003 5.16155 16.6128 4.74261 16.43 4.17132C16.3843 4.03421 16.3309 3.8971 16.27 3.76761C15.6225 2.47269 14.0534 1.9471 12.7585 2.59456C11.5321 3.20394 10.9837 4.65882 11.5016 5.92327C11.7682 6.57835 11.8977 7.17249 11.4483 7.80472C10.6104 8.98538 10.8923 10.6231 12.0729 11.4534C12.0806 11.461 12.0958 11.4686 12.1034 11.4762C12.6138 11.8342 12.8575 12.4588 12.7356 13.0682C12.4614 14.485 13.3907 15.8637 14.8151 16.1379C16.0948 16.3817 17.3516 15.658 17.7858 14.4317C19.0807 15.0791 20.6499 14.5459 21.2974 13.2586C21.8763 12.0932 21.5182 10.684 20.4518 9.93753Z" fill="#598C44"/>
<path d="M26.3935 12.0324C26.0507 11.5144 26.0431 10.8441 26.3783 10.3185C27.1781 9.11497 26.8429 7.48489 25.6394 6.68509C25.6242 6.67747 25.6089 6.66223 25.5937 6.65462C24.8472 6.18235 24.9005 5.51204 24.8396 4.7427C24.733 3.30306 23.4685 2.22141 22.0289 2.32806C20.6654 2.4347 19.6066 3.56966 19.6066 4.94075C19.6066 5.64915 19.4999 6.24329 18.8525 6.66223C17.6337 7.43919 17.2757 9.06165 18.0603 10.2804C18.0679 10.288 18.0755 10.3032 18.0831 10.3109C18.4183 10.8365 18.4183 11.5068 18.0679 12.0247C17.2833 13.2359 17.6261 14.8583 18.8372 15.6505C19.9265 16.3589 21.3738 16.1609 22.2269 15.1859C23.1867 16.2675 24.8396 16.3741 25.9212 15.422C26.8962 14.5689 27.0943 13.1216 26.3935 12.0324Z" fill="#5F9548"/>
<path d="M30.4687 19.3906L23.1562 16.9531L27.1857 4.87223C27.6732 3.41734 29.1586 2.29 30.7049 2.32809C31.6646 2.35094 32.5635 2.53375 33.3176 3.14312C34.5363 4.11812 35.0162 5.7482 34.5211 7.22594L30.4687 19.3906Z" fill="#FFB531"/>
<path d="M25.5938 13.2969V35.2344H7.3125V13.2969L9.14062 14.5156L10.9688 13.2969L12.7969 14.5156L14.625 13.2969L16.4531 14.5156L18.2812 13.2969L20.1094 14.5156L21.9375 13.2969L23.7656 14.5156L25.5938 13.2969Z" fill="#FFB531"/>
<path d="M25.5938 18.3469V35.2342H7.3125V31.5399C14.0232 29.2852 20.673 25.1795 25.5938 18.3469Z" fill="#FCAC1F"/>
<path d="M32.9062 13.2969V35.2344H25.5938V13.2969L27.4219 14.5156L29.25 13.2969L31.0781 14.5156L32.9062 13.2969Z" fill="#F98500"/>
<path d="M7.42676 37.6719C10.1191 37.6719 12.3018 35.4893 12.3018 32.7969C12.3018 30.1045 10.1191 27.9219 7.42676 27.9219C4.73437 27.9219 2.55176 30.1045 2.55176 32.7969C2.55176 35.4893 4.73437 37.6719 7.42676 37.6719Z" fill="#F35244"/>
<path d="M17.6719 24.875L18.2812 26.0938C17.5271 26.8479 17.2225 27.9447 17.4814 28.9883L17.6719 29.75H15.2344V28.8207C15.2344 27.1525 16.1789 25.6215 17.6719 24.875Z" fill="#5F9548"/>
<path d="M14.0992 37.6719C13.3299 37.6719 12.6443 37.1691 12.4234 36.4303L11.0524 31.8523C10.6715 30.5803 11.5094 29.1406 12.9186 29.1406C13.6041 29.1406 14.2363 29.4986 14.5867 30.0852L15.8436 32.1875V35.9275C15.8436 36.8873 15.059 37.6719 14.0992 37.6719Z" fill="#FA9F0C"/>
<path d="M18.8068 37.6719C19.5762 37.6719 20.2617 37.1691 20.4826 36.4303L21.8537 31.8523C22.2422 30.565 21.3891 29.1406 19.9875 29.1406C19.302 29.1406 18.6697 29.4986 18.3193 30.0852L17.0625 32.1875V35.9275C17.0625 36.8873 17.8471 37.6719 18.8068 37.6719Z" fill="#FA9F0C"/>
<path d="M16.4531 29.1406C17.4662 29.1406 18.2812 29.9557 18.2812 30.9688V35.8438C18.2812 36.8568 17.4662 37.6719 16.4531 37.6719C15.44 37.6719 14.625 36.8568 14.625 35.8438V30.9688C14.625 29.9557 15.44 29.1406 16.4531 29.1406Z" fill="#FFB531"/>
<path d="M33.6983 2.6708C32.571 1.76436 31.0247 1.49014 29.5546 1.9167C28.1226 2.33564 27.0485 3.34873 26.6067 4.68174L24.1464 12.0704L23.8569 11.6438L22.8362 12.3218V9.86143L24.5272 8.73408L23.8493 7.721L22.8286 8.39893V5.60342H21.6099V8.39131L20.5968 7.71338L19.9189 8.72646L21.6099 9.85381V12.3142L20.5968 11.6362L19.9189 12.6493L20.8558 13.2739L20.1017 13.7767L18.6087 12.7864C18.5401 12.7407 18.4716 12.7103 18.3954 12.695C18.4411 12.5808 18.5021 12.4665 18.5706 12.3599C19.0429 11.6362 19.0429 10.7069 18.5782 9.97568C18.1517 9.32822 18.1669 8.36084 18.6087 7.71338C18.7991 7.43916 19.5761 6.8831 19.7817 6.60889C20.1855 6.07568 20.2312 5.46631 20.2769 4.93311C20.3073 4.51416 20.3378 4.14854 20.5206 3.8667C21.1071 2.92979 22.3487 2.64795 23.2857 3.23447C23.4837 3.35635 23.6513 3.51631 23.796 3.6915C24.1235 4.10283 24.154 4.51416 24.1921 5.07021C24.2073 5.26064 24.2226 5.46631 24.2454 5.67959L25.4565 5.52725C25.4337 5.34443 25.4185 5.16162 25.4108 4.98643C25.3651 4.32373 25.3118 3.6458 24.7558 2.9374C23.6513 1.53584 21.6251 1.29971 20.2235 2.39658C19.9341 2.6251 19.6827 2.89932 19.4847 3.21162C19.1495 3.74482 19.1038 4.32373 19.0581 4.82646C19.0505 4.94072 19.0429 5.04736 19.0276 5.154C18.6544 4.90264 18.2278 4.72744 17.7784 4.64365C17.4128 4.58271 17.1081 4.32373 16.9939 3.97334C16.7272 3.14307 16.1483 2.45752 15.3714 2.06143C14.6097 1.65771 13.7185 1.58154 12.8958 1.84814C11.6847 2.25186 10.8011 3.38682 10.6944 4.68936C10.6563 5.18447 10.7782 5.61865 10.9001 6.00713C10.3288 5.07021 9.33096 4.47607 8.23408 4.40752L8.25693 1.70342L7.03818 1.6958L7.02295 3.45537L6.2917 1.58154L5.17959 2.04619L5.91084 3.92002L4.70732 2.64033L3.82373 3.47061L5.67471 5.45107C4.66924 6.48701 4.43311 8.04092 5.10342 9.32061L6.36787 11.7581L7.44951 11.1944L6.18506 8.75693C5.64424 7.71338 6.04795 6.42607 7.0915 5.88525C8.13506 5.34443 9.42236 5.74814 9.96319 6.7917C10.0317 6.92881 10.0851 7.06592 10.1308 7.21826L10.1536 7.29443L8.18838 8.06377L8.63018 9.19873L10.4735 8.48271V8.49033C10.3593 8.92451 10.3288 9.37393 10.405 9.82334L9.07959 10.3413L9.52139 11.4763L10.8315 10.9659C11.1362 11.4763 11.6618 11.9485 11.6618 11.9485L9.96319 12.6112L10.1612 13.1063L9.14815 13.7843L7.65518 12.794C7.37334 12.6036 7.0001 12.6798 6.80967 12.9616C6.74111 13.0606 6.71064 13.1825 6.71064 13.2968V26.0936H7.9294V14.4317L8.81299 15.0183C9.01865 15.1554 9.28525 15.1554 9.49092 15.0183L10.9839 14.028L12.4769 15.0183C12.6825 15.1554 12.9491 15.1554 13.1548 15.0183L14.6478 14.028L16.1407 15.0183C16.3464 15.1554 16.613 15.1554 16.8187 15.0183L18.3116 14.028L19.8046 15.0183C20.0103 15.1554 20.2769 15.1554 20.4825 15.0183L21.9755 14.028L23.4685 15.0183C23.6741 15.1554 23.9407 15.1554 24.1464 15.0183L25.03 14.4317V34.6249H22.5925V35.8436H32.9519C33.287 35.8436 33.5612 35.5694 33.5612 35.2343V13.2968C33.5612 13.114 33.4774 12.9464 33.3403 12.8321L35.1456 7.42393C35.6712 5.70244 35.1075 3.80576 33.6983 2.6708ZM17.5728 10.6612C17.6261 10.745 17.6642 10.8364 17.687 10.9354L17.2681 11.5524L16.3388 9.26728L17.1538 8.06377C16.9405 8.93975 17.0776 9.91475 17.5728 10.6612ZM13.3224 13.4415C13.4823 12.794 13.3528 12.1161 12.9796 11.5677C12.6216 11.0497 12.0503 10.6917 11.7608 10.128C11.6085 9.83096 11.5476 9.48818 11.5856 9.15303C11.6771 8.40654 12.2407 7.78193 12.3245 7.03545C12.3855 6.48701 12.1646 5.95381 12.0503 5.41299C11.7837 4.21709 12.5378 3.00596 13.8251 2.94502C14.4497 2.92217 15.0438 3.18877 15.4399 3.66865C15.7903 4.10283 15.9503 4.67412 16.3007 5.11592C16.5597 5.44346 16.9101 5.67959 17.3062 5.79385C17.6946 5.9081 18.1517 5.92334 18.4106 6.23564C17.9612 6.55557 17.5956 6.97451 17.3442 7.46963L16.4759 6.89072L15.7903 7.88096L14.7392 5.31396L13.6194 5.771L14.663 8.3456L13.4747 8.11709L13.231 9.30537L15.1886 9.74717L16.1407 11.9866L14.9524 11.7581L14.8077 12.4741C14.8001 12.4817 13.6347 13.213 13.3224 13.4415ZM15.4399 13.1063L16.6968 13.3653L16.7806 13.571L16.453 13.7843L15.4399 13.1063ZM23.3009 13.472L23.7731 13.1521L23.598 13.67L23.3009 13.472ZM26.203 14.4317L27.0866 15.0183C27.2923 15.1554 27.5589 15.1554 27.7646 15.0183L28.6481 14.4317V31.319L26.2106 33.7565V14.4317H26.203ZM32.2968 14.4317V33.7565L29.8593 31.319V14.4317L30.7429 15.0183C30.9485 15.1554 31.2151 15.1554 31.4208 15.0183L32.2968 14.4317ZM29.2499 32.4388L31.436 34.6249H27.0638L29.2499 32.4388ZM33.9421 7.03545L31.8702 13.2511L31.078 13.7767L29.5851 12.7864C29.3794 12.6493 29.1128 12.6493 28.9071 12.7864L27.4142 13.7767C27.4142 13.7767 25.8907 12.7636 25.8755 12.756C25.6774 12.6493 25.4337 12.6645 25.2509 12.7864L25.1595 12.8474L27.7569 5.0626C28.0769 4.11045 28.8538 3.39443 29.8974 3.08213C30.979 2.76221 32.114 2.96025 32.9366 3.61533C33.9497 4.43799 34.3534 5.80147 33.9421 7.03545Z" fill="black"/>
<path d="M28.5288 6.61157L32.1864 6.0032L32.3863 7.20489L28.7287 7.81326L28.5288 6.61157Z" fill="black"/>
<path d="M27.3091 10.2659L30.9667 9.6575L31.1666 10.8592L27.509 11.4676L27.3091 10.2659Z" fill="black"/>
<path d="M19.9949 28.5312C19.3246 28.5236 18.6771 28.7902 18.2049 29.2701C18.1973 29.2625 18.1896 29.2548 18.182 29.2396L18.083 28.8359C18.083 28.8283 18.083 28.8283 18.0754 28.8207C17.8393 27.9904 18.3115 26.9392 18.7229 26.5279C18.9057 26.3451 18.9514 26.0556 18.8371 25.8271L18.2277 24.6084C18.0754 24.3037 17.7098 24.1818 17.4127 24.3341C15.7064 25.1796 14.6324 26.924 14.64 28.8207V29.1482C14.4953 29.0416 14.3354 28.9425 14.1754 28.8511C12.9947 28.2189 11.4637 28.615 10.7629 29.7271C10.3592 30.3746 10.2525 31.2505 10.4811 32.0199L11.2732 34.663C10.2221 36.773 7.6627 37.6337 5.55273 36.5902C3.46563 35.5543 2.59727 33.033 3.60273 30.9306C3.61797 30.9002 3.6332 30.8697 3.64844 30.8392L3.67129 32.9111L4.89004 32.8959L4.85195 30.3593L7.28184 30.4736L7.34277 29.2548L5.22519 29.1558C5.85742 28.7673 6.58867 28.5541 7.32754 28.5312C8.21113 28.5084 9.07949 28.7597 9.81074 29.2548L10.4887 28.2418C9.11758 27.3201 7.40371 27.0687 5.82695 27.5486L6.08594 26.9392L4.96621 26.4593L4.12832 28.4093C4.06738 28.455 3.99883 28.5084 3.93789 28.5617L2.0793 26.7031L1.21855 27.5638L3.09238 29.4377C3.0543 29.491 3.01621 29.5443 2.97812 29.5976L0.982422 30.4507L1.4623 31.5705L2.16309 31.2658C1.31758 34.1755 2.99336 37.2148 5.90312 38.0603C7.82266 38.6164 9.89453 38.0832 11.3113 36.6664C11.4561 36.5216 11.5932 36.3617 11.7227 36.2017L11.8445 36.5978C12.2178 37.847 13.5279 38.5478 14.7771 38.1746C14.9523 38.1212 15.1123 38.0527 15.2723 37.9613C16.0111 38.3726 16.91 38.3726 17.6488 37.9613C18.7762 38.6087 20.2158 38.2127 20.8633 37.0853C20.9547 36.933 21.0232 36.7654 21.0766 36.5902L22.4477 32.0123C22.5314 31.7076 22.5695 31.3877 22.5543 31.0677C22.5467 29.6738 21.4041 28.5312 19.9949 28.5312ZM17.4203 25.7357L17.5574 26.0099C17.0775 26.6726 16.7348 27.64 16.7957 28.5541C16.6205 28.5236 16.1406 28.5007 15.8512 28.6074C15.9121 27.4572 16.491 26.406 17.4203 25.7357ZM13.01 36.255L11.6389 31.6771C11.5094 31.2429 11.5703 30.725 11.7836 30.3822C12.134 29.8185 12.9795 29.6052 13.5889 29.9328C13.8783 30.0851 13.9926 30.1918 14.1068 30.3365C14.0535 30.5421 14.023 30.7554 14.023 30.9687V35.8437C14.023 36.2627 14.1297 36.674 14.3354 37.0396C13.7488 37.1615 13.1775 36.8187 13.01 36.255ZM15.2342 35.8437V30.9687C15.2342 30.2984 15.7826 29.75 16.4529 29.75C17.1232 29.75 17.6717 30.2984 17.6717 30.9687V35.8437C17.6717 36.514 17.1232 37.0625 16.4529 37.0625C15.7826 37.0625 15.2342 36.514 15.2342 35.8437ZM21.2746 31.6771L19.9035 36.255C19.7359 36.8187 19.157 37.1615 18.5781 37.0396C18.7838 36.674 18.8904 36.2627 18.8904 35.8437V30.9687C18.8904 30.7783 18.8676 30.5955 18.8219 30.4127C18.9818 30.1689 19.3475 29.75 19.9873 29.75C20.7262 29.75 21.3203 30.3517 21.3203 31.083C21.3355 31.281 21.3203 31.4867 21.2746 31.6771Z" fill="black"/>
<path d="M53.552 21.5C53.16 21.5 52.838 21.381 52.586 21.143C52.334 20.891 52.208 20.583 52.208 20.219V8.039H54.938V20.219C54.938 20.583 54.805 20.891 54.539 21.143C54.287 21.381 53.958 21.5 53.552 21.5ZM48.911 9.215C48.547 9.215 48.239 9.103 47.987 8.879C47.749 8.655 47.63 8.361 47.63 7.997C47.63 7.633 47.749 7.346 47.987 7.136C48.239 6.912 48.547 6.8 48.911 6.8H58.235C58.599 6.8 58.9 6.912 59.138 7.136C59.39 7.36 59.516 7.654 59.516 8.018C59.516 8.382 59.39 8.676 59.138 8.9C58.9 9.11 58.599 9.215 58.235 9.215H48.911ZM67.4115 10.055C68.4195 10.055 69.1825 10.272 69.7005 10.706C70.2325 11.14 70.5965 11.721 70.7925 12.449C70.9885 13.163 71.0865 13.961 71.0865 14.843V20.219C71.0865 20.583 70.9675 20.891 70.7295 21.143C70.4915 21.381 70.1905 21.5 69.8265 21.5C69.4625 21.5 69.1615 21.381 68.9235 21.143C68.6855 20.891 68.5665 20.583 68.5665 20.219V14.843C68.5665 14.381 68.5105 13.968 68.3985 13.604C68.2865 13.226 68.0835 12.925 67.7895 12.701C67.4955 12.477 67.0755 12.365 66.5295 12.365C65.9975 12.365 65.5425 12.477 65.1645 12.701C64.7865 12.925 64.4995 13.226 64.3035 13.604C64.1215 13.968 64.0305 14.381 64.0305 14.843V20.219C64.0305 20.583 63.9115 20.891 63.6735 21.143C63.4355 21.381 63.1345 21.5 62.7705 21.5C62.4065 21.5 62.1055 21.381 61.8675 21.143C61.6295 20.891 61.5105 20.583 61.5105 20.219V7.241C61.5105 6.877 61.6295 6.576 61.8675 6.338C62.1055 6.086 62.4065 5.96 62.7705 5.96C63.1345 5.96 63.4355 6.086 63.6735 6.338C63.9115 6.576 64.0305 6.877 64.0305 7.241V12.449L63.7155 12.386C63.8415 12.148 64.0165 11.896 64.2405 11.63C64.4645 11.35 64.7375 11.091 65.0595 10.853C65.3815 10.615 65.7385 10.426 66.1305 10.286C66.5225 10.132 66.9495 10.055 67.4115 10.055ZM79.1072 21.71C77.9172 21.71 76.8812 21.465 75.9992 20.975C75.1312 20.471 74.4592 19.792 73.9832 18.938C73.5212 18.084 73.2902 17.118 73.2902 16.04C73.2902 14.78 73.5422 13.709 74.0462 12.827C74.5642 11.931 75.2362 11.245 76.0622 10.769C76.8882 10.293 77.7632 10.055 78.6872 10.055C79.4012 10.055 80.0732 10.202 80.7032 10.496C81.3472 10.79 81.9142 11.196 82.4042 11.714C82.8942 12.218 83.2792 12.806 83.5592 13.478C83.8532 14.15 84.0002 14.864 84.0002 15.62C83.9862 15.956 83.8532 16.229 83.6012 16.439C83.3492 16.649 83.0552 16.754 82.7192 16.754H74.6972L74.0672 14.654H81.7742L81.3122 15.074V14.507C81.2842 14.101 81.1372 13.737 80.8712 13.415C80.6192 13.093 80.2972 12.841 79.9052 12.659C79.5272 12.463 79.1212 12.365 78.6872 12.365C78.2672 12.365 77.8752 12.421 77.5112 12.533C77.1472 12.645 76.8322 12.834 76.5662 13.1C76.3002 13.366 76.0902 13.723 75.9362 14.171C75.7822 14.619 75.7052 15.186 75.7052 15.872C75.7052 16.628 75.8592 17.272 76.1672 17.804C76.4892 18.322 76.8952 18.721 77.3852 19.001C77.8892 19.267 78.4212 19.4 78.9812 19.4C79.4992 19.4 79.9122 19.358 80.2202 19.274C80.5282 19.19 80.7732 19.092 80.9552 18.98C81.1512 18.854 81.3262 18.749 81.4802 18.665C81.7322 18.539 81.9702 18.476 82.1942 18.476C82.5022 18.476 82.7542 18.581 82.9502 18.791C83.1602 19.001 83.2652 19.246 83.2652 19.526C83.2652 19.904 83.0692 20.247 82.6772 20.555C82.3132 20.863 81.8022 21.136 81.1442 21.374C80.4862 21.598 79.8072 21.71 79.1072 21.71ZM98.8707 6.8C100.215 6.8 101.216 7.115 101.874 7.745C102.532 8.375 102.861 9.306 102.861 10.538C102.861 11.196 102.7 11.777 102.378 12.281C102.056 12.771 101.58 13.156 100.95 13.436C100.32 13.702 99.5427 13.835 98.6187 13.835L98.7027 12.89C99.1367 12.89 99.6337 12.953 100.194 13.079C100.754 13.191 101.293 13.401 101.811 13.709C102.343 14.003 102.777 14.423 103.113 14.969C103.463 15.501 103.638 16.187 103.638 17.027C103.638 17.951 103.484 18.707 103.176 19.295C102.882 19.883 102.49 20.338 102 20.66C101.51 20.982 100.985 21.206 100.425 21.332C99.8647 21.444 99.3257 21.5 98.8077 21.5H93.5787C93.2147 21.5 92.9067 21.381 92.6547 21.143C92.4167 20.891 92.2977 20.583 92.2977 20.219V8.081C92.2977 7.717 92.4167 7.416 92.6547 7.178C92.9067 6.926 93.2147 6.8 93.5787 6.8H98.8707ZM98.4927 9.278H94.7547L95.0277 8.942V12.743L94.7757 12.554H98.5557C98.9617 12.554 99.3257 12.421 99.6477 12.155C99.9697 11.889 100.131 11.504 100.131 11C100.131 10.398 99.9767 9.964 99.6687 9.698C99.3747 9.418 98.9827 9.278 98.4927 9.278ZM98.6607 15.032H94.8387L95.0277 14.864V19.295L94.8177 19.085H98.8077C99.4517 19.085 99.9627 18.917 100.341 18.581C100.719 18.231 100.908 17.713 100.908 17.027C100.908 16.397 100.782 15.942 100.53 15.662C100.278 15.382 99.9767 15.207 99.6267 15.137C99.2767 15.067 98.9547 15.032 98.6607 15.032ZM115.046 10.055C115.41 10.055 115.711 10.174 115.949 10.412C116.187 10.65 116.306 10.958 116.306 11.336V20.219C116.306 20.583 116.187 20.891 115.949 21.143C115.711 21.381 115.41 21.5 115.046 21.5C114.682 21.5 114.381 21.381 114.143 21.143C113.905 20.891 113.786 20.583 113.786 20.219V19.19L114.248 19.379C114.248 19.561 114.15 19.785 113.954 20.051C113.758 20.303 113.492 20.555 113.156 20.807C112.82 21.059 112.421 21.276 111.959 21.458C111.511 21.626 111.021 21.71 110.489 21.71C109.523 21.71 108.648 21.465 107.864 20.975C107.08 20.471 106.457 19.785 105.995 18.917C105.547 18.035 105.323 17.027 105.323 15.893C105.323 14.745 105.547 13.737 105.995 12.869C106.457 11.987 107.073 11.301 107.843 10.811C108.613 10.307 109.467 10.055 110.405 10.055C111.007 10.055 111.56 10.146 112.064 10.328C112.568 10.51 113.002 10.741 113.366 11.021C113.744 11.301 114.031 11.588 114.227 11.882C114.437 12.162 114.542 12.4 114.542 12.596L113.786 12.869V11.336C113.786 10.972 113.905 10.671 114.143 10.433C114.381 10.181 114.682 10.055 115.046 10.055ZM110.804 19.4C111.42 19.4 111.959 19.246 112.421 18.938C112.883 18.63 113.24 18.21 113.492 17.678C113.758 17.146 113.891 16.551 113.891 15.893C113.891 15.221 113.758 14.619 113.492 14.087C113.24 13.555 112.883 13.135 112.421 12.827C111.959 12.519 111.42 12.365 110.804 12.365C110.202 12.365 109.67 12.519 109.208 12.827C108.746 13.135 108.382 13.555 108.116 14.087C107.864 14.619 107.738 15.221 107.738 15.893C107.738 16.551 107.864 17.146 108.116 17.678C108.382 18.21 108.746 18.63 109.208 18.938C109.67 19.246 110.202 19.4 110.804 19.4ZM118.384 19.757C118.244 19.561 118.181 19.309 118.195 19.001C118.209 18.693 118.391 18.427 118.741 18.203C118.965 18.063 119.203 18.007 119.455 18.035C119.707 18.049 119.952 18.175 120.19 18.413C120.596 18.819 121.023 19.134 121.471 19.358C121.919 19.582 122.479 19.694 123.151 19.694C123.361 19.68 123.592 19.652 123.844 19.61C124.096 19.554 124.313 19.442 124.495 19.274C124.691 19.092 124.789 18.819 124.789 18.455C124.789 18.147 124.684 17.902 124.474 17.72C124.264 17.538 123.984 17.384 123.634 17.258C123.298 17.132 122.92 17.013 122.5 16.901C122.066 16.775 121.618 16.635 121.156 16.481C120.708 16.327 120.295 16.131 119.917 15.893C119.539 15.641 119.231 15.312 118.993 14.906C118.755 14.5 118.636 13.989 118.636 13.373C118.636 12.673 118.832 12.078 119.224 11.588C119.616 11.098 120.12 10.72 120.736 10.454C121.366 10.188 122.024 10.055 122.71 10.055C123.144 10.055 123.599 10.111 124.075 10.223C124.551 10.321 125.006 10.489 125.44 10.727C125.874 10.951 126.238 11.252 126.532 11.63C126.686 11.84 126.777 12.092 126.805 12.386C126.833 12.68 126.7 12.946 126.406 13.184C126.196 13.352 125.951 13.429 125.671 13.415C125.391 13.387 125.16 13.289 124.978 13.121C124.74 12.813 124.418 12.568 124.012 12.386C123.62 12.204 123.165 12.113 122.647 12.113C122.437 12.113 122.206 12.141 121.954 12.197C121.716 12.239 121.506 12.344 121.324 12.512C121.142 12.666 121.051 12.918 121.051 13.268C121.051 13.59 121.156 13.849 121.366 14.045C121.576 14.227 121.856 14.381 122.206 14.507C122.57 14.619 122.955 14.731 123.361 14.843C123.781 14.955 124.208 15.088 124.642 15.242C125.076 15.396 125.475 15.599 125.839 15.851C126.203 16.103 126.497 16.432 126.721 16.838C126.945 17.23 127.057 17.734 127.057 18.35C127.057 19.064 126.847 19.673 126.427 20.177C126.007 20.681 125.482 21.066 124.852 21.332C124.222 21.584 123.578 21.71 122.92 21.71C122.094 21.71 121.268 21.57 120.442 21.29C119.616 20.996 118.93 20.485 118.384 19.757ZM130.636 21.5C130.272 21.5 129.971 21.381 129.733 21.143C129.495 20.891 129.376 20.583 129.376 20.219V7.241C129.376 6.877 129.495 6.576 129.733 6.338C129.971 6.086 130.272 5.96 130.636 5.96C131 5.96 131.301 6.086 131.539 6.338C131.777 6.576 131.896 6.877 131.896 7.241V20.219C131.896 20.583 131.777 20.891 131.539 21.143C131.301 21.381 131 21.5 130.636 21.5ZM137.314 10.265C137.636 10.265 137.916 10.398 138.154 10.664C138.392 10.93 138.511 11.189 138.511 11.441C138.511 11.777 138.343 12.092 138.007 12.386L131.686 18.203L131.581 15.305L136.39 10.664C136.656 10.398 136.964 10.265 137.314 10.265ZM137.629 21.479C137.265 21.479 136.957 21.339 136.705 21.059L132.82 16.943L134.731 15.179L138.511 19.295C138.777 19.575 138.91 19.89 138.91 20.24C138.91 20.604 138.763 20.905 138.469 21.143C138.189 21.367 137.909 21.479 137.629 21.479ZM145.942 21.71C144.752 21.71 143.716 21.465 142.834 20.975C141.966 20.471 141.294 19.792 140.818 18.938C140.356 18.084 140.125 17.118 140.125 16.04C140.125 14.78 140.377 13.709 140.881 12.827C141.399 11.931 142.071 11.245 142.897 10.769C143.723 10.293 144.598 10.055 145.522 10.055C146.236 10.055 146.908 10.202 147.538 10.496C148.182 10.79 148.749 11.196 149.239 11.714C149.729 12.218 150.114 12.806 150.394 13.478C150.688 14.15 150.835 14.864 150.835 15.62C150.821 15.956 150.688 16.229 150.436 16.439C150.184 16.649 149.89 16.754 149.554 16.754H141.532L140.902 14.654H148.609L148.147 15.074V14.507C148.119 14.101 147.972 13.737 147.706 13.415C147.454 13.093 147.132 12.841 146.74 12.659C146.362 12.463 145.956 12.365 145.522 12.365C145.102 12.365 144.71 12.421 144.346 12.533C143.982 12.645 143.667 12.834 143.401 13.1C143.135 13.366 142.925 13.723 142.771 14.171C142.617 14.619 142.54 15.186 142.54 15.872C142.54 16.628 142.694 17.272 143.002 17.804C143.324 18.322 143.73 18.721 144.22 19.001C144.724 19.267 145.256 19.4 145.816 19.4C146.334 19.4 146.747 19.358 147.055 19.274C147.363 19.19 147.608 19.092 147.79 18.98C147.986 18.854 148.161 18.749 148.315 18.665C148.567 18.539 148.805 18.476 149.029 18.476C149.337 18.476 149.589 18.581 149.785 18.791C149.995 19.001 150.1 19.246 150.1 19.526C150.1 19.904 149.904 20.247 149.512 20.555C149.148 20.863 148.637 21.136 147.979 21.374C147.321 21.598 146.642 21.71 145.942 21.71ZM153.163 10.475H158.14C158.476 10.475 158.756 10.587 158.98 10.811C159.204 11.035 159.316 11.315 159.316 11.651C159.316 11.973 159.204 12.246 158.98 12.47C158.756 12.68 158.476 12.785 158.14 12.785H153.163C152.827 12.785 152.547 12.673 152.323 12.449C152.099 12.225 151.987 11.945 151.987 11.609C151.987 11.287 152.099 11.021 152.323 10.811C152.547 10.587 152.827 10.475 153.163 10.475ZM155.41 7.85C155.774 7.85 156.068 7.976 156.292 8.228C156.53 8.466 156.649 8.767 156.649 9.131V18.476C156.649 18.672 156.684 18.833 156.754 18.959C156.838 19.085 156.943 19.176 157.069 19.232C157.209 19.288 157.356 19.316 157.51 19.316C157.678 19.316 157.832 19.288 157.972 19.232C158.112 19.162 158.273 19.127 158.455 19.127C158.651 19.127 158.826 19.218 158.98 19.4C159.148 19.582 159.232 19.834 159.232 20.156C159.232 20.548 159.015 20.87 158.581 21.122C158.161 21.374 157.706 21.5 157.216 21.5C156.922 21.5 156.593 21.479 156.229 21.437C155.879 21.381 155.543 21.262 155.221 21.08C154.913 20.884 154.654 20.59 154.444 20.198C154.234 19.806 154.129 19.267 154.129 18.581V9.131C154.129 8.767 154.248 8.466 154.486 8.228C154.738 7.976 155.046 7.85 155.41 7.85Z" fill="#3BB77E"/>
<path d="M48.29 36.5C48.17 36.5 48.07 36.46 47.99 36.38C47.9167 36.3 47.88 36.2033 47.88 36.09V29.9C47.88 29.7867 47.9167 29.6933 47.99 29.62C48.07 29.54 48.1667 29.5 48.28 29.5H51.79C51.9033 29.5 52 29.5367 52.08 29.61C52.16 29.6833 52.2 29.7767 52.2 29.89C52.2 29.9967 52.16 30.0867 52.08 30.16C52 30.2333 51.9033 30.27 51.79 30.27H48.64L48.7 30.19V32.64L48.65 32.53H51.34C51.4533 32.53 51.55 32.57 51.63 32.65C51.71 32.7233 51.75 32.8167 51.75 32.93C51.75 33.03 51.71 33.12 51.63 33.2C51.55 33.2733 51.4533 33.31 51.34 33.31H48.63L48.7 33.22V36.09C48.7 36.2033 48.66 36.3 48.58 36.38C48.5 36.46 48.4033 36.5 48.29 36.5ZM53.9943 36.5C53.8676 36.5 53.7576 36.46 53.6643 36.38C53.5776 36.3 53.5343 36.2033 53.5343 36.09V29.9C53.5343 29.7867 53.571 29.6933 53.6443 29.62C53.7243 29.54 53.821 29.5 53.9343 29.5H56.6943C57.0676 29.5 57.4043 29.5867 57.7043 29.76C58.0043 29.9267 58.241 30.16 58.4143 30.46C58.5943 30.7533 58.6843 31.0933 58.6843 31.48C58.6843 31.76 58.631 32.0233 58.5243 32.27C58.4176 32.51 58.271 32.72 58.0843 32.9C57.8976 33.0733 57.6843 33.2067 57.4443 33.3L57.2243 33.14C57.451 33.1933 57.6543 33.29 57.8343 33.43C58.0143 33.5633 58.161 33.7367 58.2743 33.95C58.3876 34.1567 58.4476 34.4 58.4543 34.68C58.4676 34.9267 58.4843 35.1233 58.5043 35.27C58.5243 35.4167 58.5543 35.5333 58.5943 35.62C58.6343 35.7 58.691 35.7633 58.7643 35.81C58.8576 35.87 58.9176 35.95 58.9443 36.05C58.9776 36.15 58.961 36.2467 58.8943 36.34C58.8543 36.4 58.7976 36.4433 58.7243 36.47C58.651 36.49 58.5776 36.4967 58.5043 36.49C58.431 36.4833 58.3676 36.4633 58.3143 36.43C58.2076 36.37 58.1043 36.2833 58.0043 36.17C57.9043 36.05 57.821 35.88 57.7543 35.66C57.6876 35.44 57.6543 35.14 57.6543 34.76C57.6543 34.5467 57.621 34.37 57.5543 34.23C57.4876 34.09 57.3976 33.9767 57.2843 33.89C57.171 33.8033 57.0443 33.7433 56.9043 33.71C56.7643 33.6767 56.621 33.66 56.4743 33.66H54.2443L54.3643 33.48V36.09C54.3643 36.2033 54.331 36.3 54.2643 36.38C54.1976 36.46 54.1076 36.5 53.9943 36.5ZM54.2443 32.94H56.6943C56.8876 32.9267 57.0676 32.86 57.2343 32.74C57.4076 32.62 57.5476 32.4533 57.6543 32.24C57.7676 32.02 57.8243 31.7733 57.8243 31.5C57.8243 31.1467 57.711 30.8533 57.4843 30.62C57.2643 30.3867 56.9843 30.27 56.6443 30.27H54.2843L54.3643 30.08V33.12L54.2443 32.94ZM60.6921 29.5H64.2521C64.3654 29.5 64.4621 29.5367 64.5421 29.61C64.6221 29.6833 64.6621 29.7767 64.6621 29.89C64.6621 30.0033 64.6221 30.0967 64.5421 30.17C64.4621 30.2367 64.3654 30.27 64.2521 30.27H61.0321L61.1221 30.1V32.63L61.0221 32.52H63.8021C63.9154 32.52 64.0121 32.5567 64.0921 32.63C64.1721 32.7033 64.2121 32.7967 64.2121 32.91C64.2121 33.0233 64.1721 33.1167 64.0921 33.19C64.0121 33.2567 63.9154 33.29 63.8021 33.29H61.0521L61.1221 33.2V35.79L61.0621 35.72H64.2521C64.3654 35.72 64.4621 35.76 64.5421 35.84C64.6221 35.92 64.6621 36.01 64.6621 36.11C64.6621 36.2233 64.6221 36.3167 64.5421 36.39C64.4621 36.4633 64.3654 36.5 64.2521 36.5H60.6921C60.5788 36.5 60.4821 36.46 60.4021 36.38C60.3288 36.3 60.2921 36.2033 60.2921 36.09V29.9C60.2921 29.7867 60.3288 29.6933 60.4021 29.62C60.4821 29.54 60.5788 29.5 60.6921 29.5ZM68.0352 36.6C67.5419 36.6 67.1086 36.5267 66.7352 36.38C66.3619 36.2333 66.0019 36 65.6552 35.68C65.6086 35.6333 65.5686 35.5833 65.5352 35.53C65.5086 35.47 65.4952 35.4067 65.4952 35.34C65.4952 35.2333 65.5319 35.14 65.6052 35.06C65.6852 34.9733 65.7819 34.93 65.8952 34.93C65.9886 34.93 66.0719 34.9667 66.1452 35.04C66.4052 35.2933 66.6852 35.4867 66.9852 35.62C67.2919 35.7533 67.6352 35.82 68.0152 35.82C68.3086 35.82 68.5719 35.7733 68.8052 35.68C69.0452 35.5867 69.2352 35.4567 69.3752 35.29C69.5152 35.1233 69.5852 34.93 69.5852 34.71C69.5786 34.4433 69.4986 34.2233 69.3452 34.05C69.1986 33.8767 68.9919 33.7333 68.7252 33.62C68.4652 33.5 68.1619 33.4 67.8152 33.32C67.5086 33.2467 67.2252 33.1567 66.9652 33.05C66.7119 32.9433 66.4919 32.8133 66.3052 32.66C66.1186 32.5 65.9719 32.31 65.8652 32.09C65.7652 31.8633 65.7152 31.6 65.7152 31.3C65.7152 30.92 65.8152 30.5867 66.0152 30.3C66.2152 30.0133 66.4919 29.7933 66.8452 29.64C67.1986 29.48 67.6052 29.4 68.0652 29.4C68.4719 29.4 68.8552 29.4667 69.2152 29.6C69.5819 29.7333 69.8752 29.9167 70.0952 30.15C70.2286 30.2767 70.2952 30.4 70.2952 30.52C70.2952 30.62 70.2519 30.7133 70.1652 30.8C70.0852 30.88 69.9919 30.92 69.8852 30.92C69.8119 30.92 69.7452 30.8933 69.6852 30.84C69.5719 30.7133 69.4286 30.6 69.2552 30.5C69.0819 30.4 68.8919 30.32 68.6852 30.26C68.4786 30.2 68.2719 30.17 68.0652 30.17C67.7586 30.17 67.4886 30.2167 67.2552 30.31C67.0219 30.3967 66.8386 30.5233 66.7052 30.69C66.5786 30.85 66.5152 31.0433 66.5152 31.27C66.5152 31.5233 66.5886 31.7333 66.7352 31.9C66.8819 32.06 67.0786 32.1933 67.3252 32.3C67.5719 32.4 67.8452 32.49 68.1452 32.57C68.4719 32.65 68.7719 32.7433 69.0452 32.85C69.3252 32.95 69.5652 33.0767 69.7652 33.23C69.9652 33.3833 70.1186 33.58 70.2252 33.82C70.3386 34.0533 70.3952 34.3433 70.3952 34.69C70.3952 35.0567 70.2919 35.3833 70.0852 35.67C69.8786 35.9567 69.5952 36.1833 69.2352 36.35C68.8819 36.51 68.4819 36.5933 68.0352 36.6ZM72.1574 29.5C72.2708 29.5 72.3674 29.54 72.4474 29.62C72.5274 29.6933 72.5674 29.79 72.5674 29.91V36.09C72.5674 36.2033 72.5241 36.3 72.4374 36.38C72.3574 36.46 72.2608 36.5 72.1474 36.5C72.0208 36.5 71.9208 36.46 71.8474 36.38C71.7741 36.3 71.7374 36.2033 71.7374 36.09V29.91C71.7374 29.79 71.7774 29.6933 71.8574 29.62C71.9374 29.54 72.0374 29.5 72.1574 29.5ZM76.7674 29.5C76.8874 29.5 76.9841 29.54 77.0574 29.62C77.1374 29.6933 77.1774 29.79 77.1774 29.91V36.09C77.1774 36.2033 77.1374 36.3 77.0574 36.38C76.9774 36.46 76.8774 36.5 76.7574 36.5C76.6441 36.5 76.5474 36.46 76.4674 36.38C76.3874 36.3 76.3474 36.2033 76.3474 36.09V29.91C76.3474 29.79 76.3874 29.6933 76.4674 29.62C76.5541 29.54 76.6541 29.5 76.7674 29.5ZM72.1174 32.55H76.7774L76.7674 33.33H72.0874L72.1174 32.55ZM84.1147 29.5C84.228 29.5 84.318 29.5367 84.3847 29.61C84.4514 29.6767 84.4847 29.7633 84.4847 29.87V36.08C84.4847 36.2067 84.4447 36.31 84.3647 36.39C84.2847 36.4633 84.188 36.5 84.0747 36.5C84.0147 36.5 83.9547 36.49 83.8947 36.47C83.8347 36.4433 83.788 36.41 83.7547 36.37L79.4747 30.71L79.6747 30.59V36.13C79.6747 36.2367 79.638 36.3267 79.5647 36.4C79.498 36.4667 79.408 36.5 79.2947 36.5C79.188 36.5 79.1014 36.4667 79.0347 36.4C78.968 36.3267 78.9347 36.2367 78.9347 36.13V29.9C78.9347 29.78 78.9714 29.6833 79.0447 29.61C79.1247 29.5367 79.218 29.5 79.3247 29.5C79.3847 29.5 79.4447 29.5133 79.5047 29.54C79.5714 29.56 79.6214 29.5933 79.6547 29.64L83.8747 35.22L83.7447 35.38V29.87C83.7447 29.7633 83.778 29.6767 83.8447 29.61C83.918 29.5367 84.008 29.5 84.1147 29.5ZM86.6394 29.5H90.1994C90.3127 29.5 90.4094 29.5367 90.4894 29.61C90.5694 29.6833 90.6094 29.7767 90.6094 29.89C90.6094 30.0033 90.5694 30.0967 90.4894 30.17C90.4094 30.2367 90.3127 30.27 90.1994 30.27H86.9794L87.0694 30.1V32.63L86.9694 32.52H89.7494C89.8627 32.52 89.9594 32.5567 90.0394 32.63C90.1194 32.7033 90.1594 32.7967 90.1594 32.91C90.1594 33.0233 90.1194 33.1167 90.0394 33.19C89.9594 33.2567 89.8627 33.29 89.7494 33.29H86.9994L87.0694 33.2V35.79L87.0094 35.72H90.1994C90.3127 35.72 90.4094 35.76 90.4894 35.84C90.5694 35.92 90.6094 36.01 90.6094 36.11C90.6094 36.2233 90.5694 36.3167 90.4894 36.39C90.4094 36.4633 90.3127 36.5 90.1994 36.5H86.6394C86.526 36.5 86.4294 36.46 86.3494 36.38C86.276 36.3 86.2394 36.2033 86.2394 36.09V29.9C86.2394 29.7867 86.276 29.6933 86.3494 29.62C86.4294 29.54 86.526 29.5 86.6394 29.5ZM93.9825 36.6C93.4892 36.6 93.0558 36.5267 92.6825 36.38C92.3092 36.2333 91.9492 36 91.6025 35.68C91.5558 35.6333 91.5158 35.5833 91.4825 35.53C91.4558 35.47 91.4425 35.4067 91.4425 35.34C91.4425 35.2333 91.4792 35.14 91.5525 35.06C91.6325 34.9733 91.7292 34.93 91.8425 34.93C91.9358 34.93 92.0192 34.9667 92.0925 35.04C92.3525 35.2933 92.6325 35.4867 92.9325 35.62C93.2392 35.7533 93.5825 35.82 93.9625 35.82C94.2558 35.82 94.5192 35.7733 94.7525 35.68C94.9925 35.5867 95.1825 35.4567 95.3225 35.29C95.4625 35.1233 95.5325 34.93 95.5325 34.71C95.5258 34.4433 95.4458 34.2233 95.2925 34.05C95.1458 33.8767 94.9392 33.7333 94.6725 33.62C94.4125 33.5 94.1092 33.4 93.7625 33.32C93.4558 33.2467 93.1725 33.1567 92.9125 33.05C92.6592 32.9433 92.4392 32.8133 92.2525 32.66C92.0658 32.5 91.9192 32.31 91.8125 32.09C91.7125 31.8633 91.6625 31.6 91.6625 31.3C91.6625 30.92 91.7625 30.5867 91.9625 30.3C92.1625 30.0133 92.4392 29.7933 92.7925 29.64C93.1458 29.48 93.5525 29.4 94.0125 29.4C94.4192 29.4 94.8025 29.4667 95.1625 29.6C95.5292 29.7333 95.8225 29.9167 96.0425 30.15C96.1758 30.2767 96.2425 30.4 96.2425 30.52C96.2425 30.62 96.1992 30.7133 96.1125 30.8C96.0325 30.88 95.9392 30.92 95.8325 30.92C95.7592 30.92 95.6925 30.8933 95.6325 30.84C95.5192 30.7133 95.3758 30.6 95.2025 30.5C95.0292 30.4 94.8392 30.32 94.6325 30.26C94.4258 30.2 94.2192 30.17 94.0125 30.17C93.7058 30.17 93.4358 30.2167 93.2025 30.31C92.9692 30.3967 92.7858 30.5233 92.6525 30.69C92.5258 30.85 92.4625 31.0433 92.4625 31.27C92.4625 31.5233 92.5358 31.7333 92.6825 31.9C92.8292 32.06 93.0258 32.1933 93.2725 32.3C93.5192 32.4 93.7925 32.49 94.0925 32.57C94.4192 32.65 94.7192 32.7433 94.9925 32.85C95.2725 32.95 95.5125 33.0767 95.7125 33.23C95.9125 33.3833 96.0658 33.58 96.1725 33.82C96.2858 34.0533 96.3425 34.3433 96.3425 34.69C96.3425 35.0567 96.2392 35.3833 96.0325 35.67C95.8258 35.9567 95.5425 36.1833 95.1825 36.35C94.8292 36.51 94.4292 36.5933 93.9825 36.6ZM99.7247 36.6C99.2314 36.6 98.798 36.5267 98.4247 36.38C98.0514 36.2333 97.6914 36 97.3447 35.68C97.298 35.6333 97.258 35.5833 97.2247 35.53C97.198 35.47 97.1847 35.4067 97.1847 35.34C97.1847 35.2333 97.2214 35.14 97.2947 35.06C97.3747 34.9733 97.4714 34.93 97.5847 34.93C97.678 34.93 97.7614 34.9667 97.8347 35.04C98.0947 35.2933 98.3747 35.4867 98.6747 35.62C98.9814 35.7533 99.3247 35.82 99.7047 35.82C99.998 35.82 100.261 35.7733 100.495 35.68C100.735 35.5867 100.925 35.4567 101.065 35.29C101.205 35.1233 101.275 34.93 101.275 34.71C101.268 34.4433 101.188 34.2233 101.035 34.05C100.888 33.8767 100.681 33.7333 100.415 33.62C100.155 33.5 99.8514 33.4 99.5047 33.32C99.198 33.2467 98.9147 33.1567 98.6547 33.05C98.4014 32.9433 98.1814 32.8133 97.9947 32.66C97.808 32.5 97.6614 32.31 97.5547 32.09C97.4547 31.8633 97.4047 31.6 97.4047 31.3C97.4047 30.92 97.5047 30.5867 97.7047 30.3C97.9047 30.0133 98.1814 29.7933 98.5347 29.64C98.888 29.48 99.2947 29.4 99.7547 29.4C100.161 29.4 100.545 29.4667 100.905 29.6C101.271 29.7333 101.565 29.9167 101.785 30.15C101.918 30.2767 101.985 30.4 101.985 30.52C101.985 30.62 101.941 30.7133 101.855 30.8C101.775 30.88 101.681 30.92 101.575 30.92C101.501 30.92 101.435 30.8933 101.375 30.84C101.261 30.7133 101.118 30.6 100.945 30.5C100.771 30.4 100.581 30.32 100.375 30.26C100.168 30.2 99.9614 30.17 99.7547 30.17C99.448 30.17 99.178 30.2167 98.9447 30.31C98.7114 30.3967 98.528 30.5233 98.3947 30.69C98.268 30.85 98.2047 31.0433 98.2047 31.27C98.2047 31.5233 98.278 31.7333 98.4247 31.9C98.5714 32.06 98.768 32.1933 99.0147 32.3C99.2614 32.4 99.5347 32.49 99.8347 32.57C100.161 32.65 100.461 32.7433 100.735 32.85C101.015 32.95 101.255 33.0767 101.455 33.23C101.655 33.3833 101.808 33.58 101.915 33.82C102.028 34.0533 102.085 34.3433 102.085 34.69C102.085 35.0567 101.981 35.3833 101.775 35.67C101.568 35.9567 101.285 36.1833 100.925 36.35C100.571 36.51 100.171 36.5933 99.7247 36.6ZM109.081 29.5C109.567 29.5 109.994 29.5933 110.361 29.78C110.734 29.96 111.044 30.2133 111.291 30.54C111.537 30.8667 111.721 31.2433 111.841 31.67C111.967 32.09 112.031 32.5333 112.031 33C112.031 33.64 111.921 34.2267 111.701 34.76C111.481 35.2867 111.154 35.71 110.721 36.03C110.287 36.3433 109.741 36.5 109.081 36.5H106.581C106.467 36.5 106.371 36.46 106.291 36.38C106.217 36.3 106.181 36.2033 106.181 36.09V29.9C106.181 29.7867 106.217 29.6933 106.291 29.62C106.371 29.54 106.467 29.5 106.581 29.5H109.081ZM108.981 35.72C109.494 35.72 109.911 35.5967 110.231 35.35C110.557 35.1033 110.794 34.7733 110.941 34.36C111.094 33.9467 111.171 33.4933 111.171 33C111.171 32.64 111.127 32.2967 111.041 31.97C110.961 31.6367 110.831 31.3433 110.651 31.09C110.477 30.8367 110.251 30.6367 109.971 30.49C109.697 30.3433 109.367 30.27 108.981 30.27H106.931L107.011 30.19V35.82L106.951 35.72H108.981ZM113.759 29.5H117.319C117.432 29.5 117.529 29.5367 117.609 29.61C117.689 29.6833 117.729 29.7767 117.729 29.89C117.729 30.0033 117.689 30.0967 117.609 30.17C117.529 30.2367 117.432 30.27 117.319 30.27H114.099L114.189 30.1V32.63L114.089 32.52H116.869C116.982 32.52 117.079 32.5567 117.159 32.63C117.239 32.7033 117.279 32.7967 117.279 32.91C117.279 33.0233 117.239 33.1167 117.159 33.19C117.079 33.2567 116.982 33.29 116.869 33.29H114.119L114.189 33.2V35.79L114.129 35.72H117.319C117.432 35.72 117.529 35.76 117.609 35.84C117.689 35.92 117.729 36.01 117.729 36.11C117.729 36.2233 117.689 36.3167 117.609 36.39C117.529 36.4633 117.432 36.5 117.319 36.5H113.759C113.645 36.5 113.549 36.46 113.469 36.38C113.395 36.3 113.359 36.2033 113.359 36.09V29.9C113.359 29.7867 113.395 29.6933 113.469 29.62C113.549 29.54 113.645 29.5 113.759 29.5ZM122.922 35.71C123.035 35.71 123.132 35.75 123.212 35.83C123.292 35.9033 123.332 35.9967 123.332 36.11C123.332 36.2233 123.292 36.3167 123.212 36.39C123.132 36.4633 123.035 36.5 122.922 36.5H119.462C119.348 36.5 119.252 36.46 119.172 36.38C119.098 36.3 119.062 36.2033 119.062 36.09V29.9C119.062 29.7867 119.102 29.6933 119.182 29.62C119.262 29.54 119.362 29.5 119.482 29.5C119.595 29.5 119.692 29.54 119.772 29.62C119.852 29.6933 119.892 29.7867 119.892 29.9V35.89L119.692 35.71H122.922ZM125.312 36.09C125.312 36.2033 125.268 36.3 125.182 36.38C125.102 36.46 125.005 36.5 124.892 36.5C124.765 36.5 124.665 36.46 124.592 36.38C124.518 36.3 124.482 36.2033 124.482 36.09V29.91C124.482 29.79 124.522 29.6933 124.602 29.62C124.682 29.54 124.782 29.5 124.902 29.5C125.015 29.5 125.112 29.54 125.192 29.62C125.272 29.6933 125.312 29.79 125.312 29.91V36.09ZM132.149 29.49C132.263 29.49 132.359 29.5267 132.439 29.6C132.519 29.6667 132.559 29.7567 132.559 29.87C132.559 29.9233 132.546 29.9833 132.519 30.05L129.909 36.24C129.869 36.3267 129.813 36.3933 129.739 36.44C129.673 36.48 129.599 36.5 129.519 36.5C129.446 36.4933 129.376 36.47 129.309 36.43C129.243 36.3833 129.193 36.32 129.159 36.24L126.559 30.06C126.546 30.0333 126.536 30.0067 126.529 29.98C126.523 29.9467 126.519 29.9133 126.519 29.88C126.519 29.7533 126.563 29.6567 126.649 29.59C126.743 29.5167 126.833 29.48 126.919 29.48C127.099 29.48 127.229 29.5733 127.309 29.76L129.699 35.46H129.469L131.779 29.74C131.859 29.5733 131.983 29.49 132.149 29.49ZM134.159 29.5H137.719C137.832 29.5 137.929 29.5367 138.009 29.61C138.089 29.6833 138.129 29.7767 138.129 29.89C138.129 30.0033 138.089 30.0967 138.009 30.17C137.929 30.2367 137.832 30.27 137.719 30.27H134.499L134.589 30.1V32.63L134.489 32.52H137.269C137.382 32.52 137.479 32.5567 137.559 32.63C137.639 32.7033 137.679 32.7967 137.679 32.91C137.679 33.0233 137.639 33.1167 137.559 33.19C137.479 33.2567 137.382 33.29 137.269 33.29H134.519L134.589 33.2V35.79L134.529 35.72H137.719C137.832 35.72 137.929 35.76 138.009 35.84C138.089 35.92 138.129 36.01 138.129 36.11C138.129 36.2233 138.089 36.3167 138.009 36.39C137.929 36.4633 137.832 36.5 137.719 36.5H134.159C134.046 36.5 133.949 36.46 133.869 36.38C133.796 36.3 133.759 36.2033 133.759 36.09V29.9C133.759 29.7867 133.796 29.6933 133.869 29.62C133.949 29.54 134.046 29.5 134.159 29.5ZM139.922 36.5C139.795 36.5 139.685 36.46 139.592 36.38C139.505 36.3 139.462 36.2033 139.462 36.09V29.9C139.462 29.7867 139.499 29.6933 139.572 29.62C139.652 29.54 139.749 29.5 139.862 29.5H142.622C142.995 29.5 143.332 29.5867 143.632 29.76C143.932 29.9267 144.169 30.16 144.342 30.46C144.522 30.7533 144.612 31.0933 144.612 31.48C144.612 31.76 144.559 32.0233 144.452 32.27C144.345 32.51 144.199 32.72 144.012 32.9C143.825 33.0733 143.612 33.2067 143.372 33.3L143.152 33.14C143.379 33.1933 143.582 33.29 143.762 33.43C143.942 33.5633 144.089 33.7367 144.202 33.95C144.315 34.1567 144.375 34.4 144.382 34.68C144.395 34.9267 144.412 35.1233 144.432 35.27C144.452 35.4167 144.482 35.5333 144.522 35.62C144.562 35.7 144.619 35.7633 144.692 35.81C144.785 35.87 144.845 35.95 144.872 36.05C144.905 36.15 144.889 36.2467 144.822 36.34C144.782 36.4 144.725 36.4433 144.652 36.47C144.579 36.49 144.505 36.4967 144.432 36.49C144.359 36.4833 144.295 36.4633 144.242 36.43C144.135 36.37 144.032 36.2833 143.932 36.17C143.832 36.05 143.749 35.88 143.682 35.66C143.615 35.44 143.582 35.14 143.582 34.76C143.582 34.5467 143.549 34.37 143.482 34.23C143.415 34.09 143.325 33.9767 143.212 33.89C143.099 33.8033 142.972 33.7433 142.832 33.71C142.692 33.6767 142.549 33.66 142.402 33.66H140.172L140.292 33.48V36.09C140.292 36.2033 140.259 36.3 140.192 36.38C140.125 36.46 140.035 36.5 139.922 36.5ZM140.172 32.94H142.622C142.815 32.9267 142.995 32.86 143.162 32.74C143.335 32.62 143.475 32.4533 143.582 32.24C143.695 32.02 143.752 31.7733 143.752 31.5C143.752 31.1467 143.639 30.8533 143.412 30.62C143.192 30.3867 142.912 30.27 142.572 30.27H140.212L140.292 30.08V33.12L140.172 32.94ZM146.62 29.5H150.18C150.293 29.5 150.39 29.5367 150.47 29.61C150.55 29.6833 150.59 29.7767 150.59 29.89C150.59 30.0033 150.55 30.0967 150.47 30.17C150.39 30.2367 150.293 30.27 150.18 30.27H146.96L147.05 30.1V32.63L146.95 32.52H149.73C149.843 32.52 149.94 32.5567 150.02 32.63C150.1 32.7033 150.14 32.7967 150.14 32.91C150.14 33.0233 150.1 33.1167 150.02 33.19C149.94 33.2567 149.843 33.29 149.73 33.29H146.98L147.05 33.2V35.79L146.99 35.72H150.18C150.293 35.72 150.39 35.76 150.47 35.84C150.55 35.92 150.59 36.01 150.59 36.11C150.59 36.2233 150.55 36.3167 150.47 36.39C150.39 36.4633 150.293 36.5 150.18 36.5H146.62C146.507 36.5 146.41 36.46 146.33 36.38C146.257 36.3 146.22 36.2033 146.22 36.09V29.9C146.22 29.7867 146.257 29.6933 146.33 29.62C146.41 29.54 146.507 29.5 146.62 29.5ZM154.823 29.5C155.31 29.5 155.736 29.5933 156.103 29.78C156.476 29.96 156.786 30.2133 157.033 30.54C157.28 30.8667 157.463 31.2433 157.583 31.67C157.71 32.09 157.773 32.5333 157.773 33C157.773 33.64 157.663 34.2267 157.443 34.76C157.223 35.2867 156.896 35.71 156.463 36.03C156.03 36.3433 155.483 36.5 154.823 36.5H152.323C152.21 36.5 152.113 36.46 152.033 36.38C151.96 36.3 151.923 36.2033 151.923 36.09V29.9C151.923 29.7867 151.96 29.6933 152.033 29.62C152.113 29.54 152.21 29.5 152.323 29.5H154.823ZM154.723 35.72C155.236 35.72 155.653 35.5967 155.973 35.35C156.3 35.1033 156.536 34.7733 156.683 34.36C156.836 33.9467 156.913 33.4933 156.913 33C156.913 32.64 156.87 32.2967 156.783 31.97C156.703 31.6367 156.573 31.3433 156.393 31.09C156.22 30.8367 155.993 30.6367 155.713 30.49C155.44 30.3433 155.11 30.27 154.723 30.27H152.673L152.753 30.19V35.82L152.693 35.72H154.723Z" fill="#ADADAD"/>
</svg>
